<svg width="20" height="20" viewBox="0 0 20 20" fill="none" xmlns="http://www.w3.org/2000/svg">
<path d="M14.8668 7.98981L16.0419 7.91534C16.0439 7.91519 16.046 7.91504 16.0481 7.91488C16.8855 7.84424 17.6372 7.40555 18.1105 6.71096L19.0395 5.34804C19.848 4.16152 20.1613 2.72841 19.9213 1.31285C19.8741 1.03483 19.7319 0.778637 19.521 0.591716C19.31 0.404643 19.0387 0.294169 18.757 0.280742C17.3224 0.212077 15.9377 0.695019 14.8567 1.64L13.615 2.72566C12.9822 3.2788 12.6367 4.07759 12.6669 4.91759C12.6671 4.91958 12.6671 4.92171 12.6672 4.92385L12.7342 6.09924C12.7603 6.55746 12.5923 7.00958 12.2742 7.33886L2.57293 17.305C2.31322 17.5759 2.1791 17.9474 2.19542 18.3513C2.21343 18.796 2.41744 19.2327 2.74123 19.5197C3.03374 19.7789 3.43581 19.9266 3.83773 19.9266C3.88076 19.9266 3.92379 19.925 3.96667 19.9214C4.36965 19.8892 4.72259 19.7116 4.96154 19.4196L13.6906 8.59589C13.9801 8.23975 14.4089 8.0188 14.8668 7.98981ZM13.2246 8.21869L4.4963 19.0415C4.36294 19.2044 4.15786 19.3048 3.91891 19.3239C3.63463 19.3466 3.34319 19.252 3.13903 19.0711C2.93487 18.8899 2.80608 18.6119 2.79464 18.327C2.78487 18.0876 2.85979 17.872 3.00414 17.7216L12.7046 7.75619C13.1395 7.30621 13.3684 6.68991 13.333 6.06521L13.266 4.89287C13.2433 4.23537 13.5141 3.61022 14.0096 3.17702L15.2513 2.09135C16.2151 1.24891 17.4501 0.818768 18.7285 0.879498C18.8741 0.886517 19.0141 0.943585 19.1232 1.04033C19.2323 1.13691 19.3057 1.26936 19.3301 1.41295C19.5441 2.675 19.2648 3.95247 18.544 5.01021L17.6151 6.37329C17.2444 6.91711 16.6562 7.26089 16.0007 7.3172L14.8288 7.39135C14.2044 7.43103 13.62 7.73224 13.2246 8.21869Z" fill="#071E3D"/>
<path d="M19.4461 17.2293L12.9414 11.3047C12.819 11.1932 12.6295 11.2021 12.5178 11.3244C12.4064 11.4468 12.4153 11.6365 12.5377 11.748L19.0407 17.6712C19.1954 17.8142 19.2831 18.0249 19.2878 18.2644C19.2935 18.5495 19.1816 18.8347 18.9886 19.0277C18.7958 19.2206 18.511 19.3327 18.2254 19.3269C17.9858 19.3222 17.7751 19.2344 17.6336 19.0814L11.8374 12.7179C11.7259 12.5953 11.5362 12.5866 11.4139 12.698C11.2915 12.8096 11.2826 12.9992 11.3942 13.1216L17.1917 19.4867C17.4466 19.7623 17.8094 19.9185 18.2136 19.9264C18.2242 19.9266 18.2345 19.9267 18.2451 19.9267C18.6795 19.9267 19.1139 19.7505 19.4125 19.4517C19.7186 19.1456 19.8961 18.6975 19.8872 18.2527C19.8793 17.8485 19.7232 17.4856 19.4461 17.2293Z" fill="#071E3D"/>
<path d="M3.61753 7.93302C4.11375 8.39017 4.75843 8.65079 5.43287 8.66696C5.435 8.66712 5.43714 8.66712 5.43912 8.66712L6.61649 8.67078C7.07548 8.67215 7.51661 8.86701 7.82621 9.20438L8.34486 9.77368C8.40406 9.83869 8.48508 9.87164 8.56657 9.87164C8.63859 9.87164 8.71091 9.84586 8.76829 9.79352C8.89082 9.68198 8.89967 9.49231 8.78812 9.36994L8.26871 8.79987C7.84574 8.33875 7.24424 8.07325 6.61848 8.07111L5.44431 8.06745C4.92261 8.05417 4.4238 7.85443 4.0373 7.50455L0.625282 3.44846C0.590492 3.40696 0.593086 3.34684 0.631385 3.30854C0.657631 3.28214 0.688453 3.27833 0.704475 3.27833C0.720497 3.27833 0.75132 3.28214 0.777717 3.30854L3.88349 6.41446C4.1905 6.72147 4.69007 6.72147 4.99708 6.41431L5.36207 6.04947V6.04932L6.01011 5.40128C6.01011 5.40128 6.01026 5.40128 6.01026 5.40113L6.01041 5.40098L6.37525 5.03614C6.68226 4.72913 6.68226 4.22956 6.37525 3.92255L3.26948 0.816781C3.22919 0.776497 3.22919 0.710732 3.26948 0.670449C3.30778 0.632149 3.3679 0.629555 3.4094 0.664345L7.46549 4.07651C7.81553 4.46287 8.01527 4.96183 8.02854 5.48337L8.03205 6.65769C8.03419 7.2833 8.29984 7.8848 8.76157 8.30869L9.3173 8.81482C9.43983 8.92636 9.62934 8.91751 9.74088 8.79514C9.85227 8.67261 9.84342 8.4831 9.72105 8.37155L9.16624 7.86618C8.82795 7.55582 8.63325 7.11454 8.63172 6.6557L8.62806 5.47834C8.62806 5.4762 8.62806 5.47406 8.62791 5.47193C8.61173 4.79749 8.35111 4.15281 7.89396 3.65659C7.88541 3.64728 7.87626 3.63843 7.86649 3.63019L3.7953 0.205514C3.51392 -0.0313024 3.1056 -0.0136022 2.84559 0.246407C2.57139 0.520608 2.57139 0.966622 2.84559 1.24067L5.95136 4.34659C6.0246 4.41984 6.0246 4.53901 5.95136 4.61225L5.79832 4.76514L2.33686 1.30384C2.21983 1.18665 2.03001 1.18665 1.91297 1.30384C1.79594 1.42088 1.79594 1.61069 1.91297 1.72773L5.37443 5.18918L5.15012 5.41333L1.68867 1.95203C1.57163 1.835 1.38181 1.835 1.26478 1.95203C1.14759 2.06907 1.14759 2.25889 1.26478 2.37592L4.72608 5.83738L4.57319 5.99042C4.49995 6.06366 4.38077 6.06366 4.30753 5.99042L1.20161 2.88465C1.06885 2.7519 0.892311 2.67866 0.704475 2.67866C0.516639 2.67866 0.340095 2.7519 0.207344 2.88465C-0.052666 3.14466 -0.0702136 3.55298 0.16645 3.83451L3.59129 7.90555C3.59937 7.91532 3.60822 7.92447 3.61753 7.93302Z" fill="#071E3D"/>
</svg>
