<svg width="20" height="20" viewBox="0 0 20 20" fill="none" xmlns="http://www.w3.org/2000/svg">
<path d="M11.6703 3.89728C12.4185 4.04325 13.1061 4.40915 13.6451 4.94816C14.1841 5.48717 14.55 6.17476 14.6959 6.92292L11.6703 3.89728ZM11.6703 0.833334C13.2247 1.00601 14.6742 1.7021 15.7808 2.80728C16.8873 3.91247 17.5853 5.36108 17.7599 6.91526L11.6703 0.833334ZM16.9939 13.0278V15.3258C16.9948 15.5391 16.9511 15.7503 16.8656 15.9457C16.7801 16.1412 16.6548 16.3167 16.4976 16.4609C16.3404 16.6051 16.1548 16.7149 15.9527 16.7832C15.7507 16.8516 15.5365 16.877 15.3241 16.8578C12.967 16.6016 10.7029 15.7962 8.7136 14.5062C6.86284 13.3301 5.29373 11.761 4.11768 9.91027C2.82315 7.91196 2.01753 5.63683 1.7661 3.26917C1.74696 3.05735 1.77214 2.84386 1.84002 2.6423C1.90791 2.44075 2.01702 2.25553 2.16041 2.09845C2.3038 1.94137 2.47832 1.81587 2.67287 1.72994C2.86742 1.644 3.07773 1.59952 3.29042 1.59932H5.58837C5.96011 1.59566 6.3205 1.7273 6.60236 1.9697C6.88422 2.2121 7.06832 2.54872 7.12035 2.91682C7.21734 3.65221 7.39721 4.37428 7.65654 5.06924C7.75959 5.3434 7.7819 5.64136 7.72081 5.92781C7.65972 6.21427 7.51779 6.4772 7.31184 6.68547L6.33904 7.65827C7.42946 9.57595 9.01728 11.1638 10.935 12.2542L11.9078 11.2814C12.116 11.0754 12.379 10.9335 12.6654 10.8724C12.9519 10.8113 13.2498 10.8336 13.524 10.9367C14.2189 11.196 14.941 11.3759 15.6764 11.4729C16.0485 11.5254 16.3883 11.7128 16.6312 11.9995C16.8742 12.2862 17.0032 12.6522 16.9939 13.0278Z" stroke="#071E3D" stroke-linecap="round" stroke-linejoin="round"/>
</svg>
