<svg width="62" height="67" viewBox="0 0 62 67" fill="none" xmlns="http://www.w3.org/2000/svg">
<path d="M42.2475 55.7161L32.7475 66.0796C31.6232 67.3062 29.8005 67.3062 28.6762 66.0796L19.1762 55.7161C17.3626 53.7376 18.6471 50.3546 21.212 50.3548H27.3491L27.349 37.1635H15.2571V43.8585C15.2571 46.6565 12.1561 48.0578 10.3424 46.0793L0.842503 35.7158C-0.281831 34.4892 -0.281831 32.5007 0.842503 31.2743L10.3424 20.9107C12.156 18.9322 15.2571 20.3335 15.2571 23.1315V29.8353H27.349V16.6442H21.2037C18.6388 16.6442 17.3544 13.2613 19.168 11.2827L28.6679 0.919162C29.7922 -0.307384 31.6149 -0.307384 32.7393 0.919162L42.2392 11.2827C44.0528 13.2612 42.7683 16.6442 40.2034 16.6442H34.0663V29.8353H46.1582V23.1403C46.1582 20.3423 49.2592 18.941 51.0728 20.9195L60.5727 31.283C61.697 32.5096 61.697 34.4981 60.5727 35.7245L51.0728 46.0881C49.2592 48.0666 46.1581 46.6653 46.1582 43.8673V37.1635H34.0664V50.3546H40.2117C42.7766 50.3546 44.061 53.7375 42.2475 55.7161Z" fill="#DEDEDE"/>
</svg>
